# xmcd CD database file
#
# Track frame offsets:
#	150
#	18748
#	33541
#	49912
#	65918
#	91297
#	130279
#	156655
#	180902
#	193197
#	226024
#	259273
#	277732
#	298057
#	319361
#
# Disc length: 4583 seconds
#
# Revision: 0
# Processed by: cddbd v1.5.2PL0 Copyright (c) Steve Scherf et al.
# Submitted via: CDex 1.70beta2
#
DISCID=e311e50f
DTITLE=Henri Guedon - Henri Guedon
DYEAR=1900
DGENRE=Salsa
TTITLE0=Guajira Contestación
TTITLE1=Shinga Swing
TTITLE2=An Ti Fi
TTITLE3=Faut Pas Pousser
TTITLE4=Brujeria
TTITLE5=Los Antillanos De Paris
TTITLE6=Vulcano
TTITLE7=Ritmo Moderno
TTITLE8=Machapia
TTITLE9=Sainte Marie
TTITLE10=Concierto De Mi Bongo
TTITLE11=Marcel Song
TTITLE12=Carnaval Nou
TTITLE13=Negro Lucumi
TTITLE14=Descarguajira
EXTD=
EXTT0=
EXTT1=
EXTT2=
EXTT3=
EXTT4=
EXTT5=
EXTT6=
EXTT7=
EXTT8=
EXTT9=
EXTT10=
EXTT11=
EXTT12=
EXTT13=
EXTT14=
PLAYORDER=
